<?xml version="1.0" standalone="no"?>
<!DOCTYPE svg PUBLIC "-//W3C//DTD SVG 20010904//EN"
 "http://www.w3.org/TR/2001/REC-SVG-20010904/DTD/svg10.dtd">
<svg version="1.0" xmlns="http://www.w3.org/2000/svg"
 width="56.000000pt" height="60.000000pt" viewBox="0 0 56.000000 60.000000"
 preserveAspectRatio="xMidYMid meet">

<g transform="translate(0.000000,60.000000) scale(0.100000,-0.100000)"
fill="#000000" stroke="none">
<path d="M218 422 l-78 -46 0 -96 0 -95 75 -43 c43 -25 82 -41 91 -38 8 3 46
24 85 46 l69 41 0 92 c0 104 14 85 -110 154 l-55 30 -77 -45z m100 4 c5 -23
-18 -39 -35 -24 -20 16 -72 -10 -94 -46 -10 -17 -19 -45 -19 -63 0 -17 -4 -35
-10 -38 -6 -4 -10 9 -10 33 0 49 33 101 79 124 19 9 39 22 45 28 15 15 40 8
44 -14z m109 -76 c17 -31 21 -56 20 -98 -2 -51 -5 -57 -25 -60 -31 -5 -40 25
-13 44 39 28 18 114 -38 153 -41 30 -40 49 2 23 17 -12 42 -39 54 -62z m-86 5
c39 -25 40 -27 37 -76 -3 -46 -6 -52 -41 -72 l-38 -21 -44 24 c-43 24 -45 26
-45 72 0 45 2 48 43 72 23 14 43 26 45 26 1 0 21 -11 43 -25z m-141 -145 c6
-28 60 -60 100 -60 14 0 38 7 54 15 40 21 56 18 28 -5 -35 -29 -86 -35 -135
-16 -60 23 -102 59 -94 80 10 25 40 16 47 -14z"/>
<path d="M290 426 c0 -9 5 -16 10 -16 6 0 10 4 10 9 0 6 -4 13 -10 16 -5 3
-10 -1 -10 -9z"/>
<path d="M410 210 c0 -5 5 -10 10 -10 6 0 10 5 10 10 0 6 -4 10 -10 10 -5 0
-10 -4 -10 -10z"/>
<path d="M277 315 c-24 -17 -22 -62 3 -70 50 -16 84 51 37 72 -17 8 -28 7 -40
-2z"/>
<path d="M166 222 c-3 -6 -1 -14 5 -17 15 -10 25 3 12 16 -7 7 -13 7 -17 1z"/>
</g>
</svg>
